/* XPM */
static char *_47f5559cbea4fef98fb54d97a43451cjlbqQg0Gq18sLU4G[] = {
/* columns rows colors chars-per-pixel */
"64 64 217 2 ",
"   c #312F2B",
".  c #1A470C",
"X  c #1C4B0F",
"o  c #1F4E13",
"O  c #1C5513",
"+  c #214E13",
"@  c #235316",
"#  c #285615",
"$  c #265916",
"%  c #295B16",
"&  c #265519",
"*  c #29561B",
"=  c #26591A",
"-  c #2B5C1C",
";  c #315F1D",
":  c #2D6216",
">  c #256118",
",  c #2E611C",
"<  c #31631D",
"1  c #35691E",
"2  c #2D5D21",
"3  c #315E22",
"4  c #375C28",
"5  c #395E33",
"6  c #3A5C3B",
"7  c #2F6220",
"8  c #336421",
"9  c #396523",
"0  c #366922",
"q  c #3A6D24",
"w  c #366528",
"e  c #3A642C",
"r  c #376828",
"t  c #3C6D29",
"y  c #3D7126",
"u  c #3E7129",
"i  c #3C6435",
"p  c #4D5D2D",
"a  c #46652A",
"s  c #596A2B",
"d  c #41742B",
"f  c #44782D",
"g  c #42663D",
"h  c #566837",
"j  c #447330",
"k  c #686B2D",
"l  c #676B38",
"z  c #756E31",
"x  c #787333",
"c  c #3D5B43",
"v  c #3D6042",
"b  c #425E49",
"n  c #445B57",
"m  c #5F5C5A",
"M  c #436248",
"N  c #5C7343",
"B  c #4E6359",
"V  c #747654",
"C  c #4C5B6D",
"Z  c #546768",
"A  c #697271",
"S  c #8D7238",
"D  c #9C7C3F",
"F  c #AB773F",
"G  c #8C7148",
"H  c #A57A48",
"J  c #9C7A67",
"K  c #8A7375",
"L  c #9A8033",
"P  c #A7843C",
"I  c #BC833A",
"U  c #BE933F",
"Y  c #C68B3C",
"T  c #D58F35",
"R  c #C9923C",
"E  c #D5973C",
"W  c #E49E39",
"Q  c #DBA23B",
"!  c #E9A236",
"~  c #E4A43D",
"^  c #ECA53C",
"/  c #EBA93D",
"(  c #F3A93B",
")  c #9A8444",
"_  c #AB8442",
"`  c #B88945",
"'  c #AB8559",
"]  c #B88A56",
"[  c #B9905F",
"{  c #9E8970",
"}  c #AB8966",
"|  c #BA8E65",
" . c #AF9173",
".. c #BBA07A",
"X. c #C38744",
"o. c #C38D44",
"O. c #D08F40",
"+. c #CC9344",
"@. c #C89448",
"#. c #CB934C",
"$. c #D39544",
"%. c #D49646",
"&. c #DC9B44",
"*. c #D39A4C",
"=. c #DB9C4A",
"-. c #C48D5A",
";. c #C99453",
":. c #D89A55",
">. c #E49E44",
",. c #E89E45",
"<. c #DBA247",
"1. c #DAA253",
"2. c #E5A443",
"3. c #EBA543",
"4. c #E6A942",
"5. c #ECAB43",
"6. c #E4A44C",
"7. c #E8A74B",
"8. c #ECAB4C",
"9. c #F2AC47",
"0. c #F1B34B",
"q. c #E3A65A",
"w. c #F3B254",
"e. c #F8B35A",
"r. c #CC9469",
"t. c #C89A68",
"y. c #C69778",
"u. c #D7A368",
"i. c #CEA377",
"p. c #ECB077",
"a. c #F1B275",
"s. c #4E5483",
"d. c #515B87",
"f. c #555A96",
"g. c #6C6F92",
"h. c #68659B",
"j. c #79729A",
"k. c #5658AA",
"l. c #5556B3",
"z. c #535AB4",
"x. c #5A5DB3",
"c. c #545ABA",
"v. c #595DBB",
"b. c #5B61B5",
"n. c #5D64BC",
"m. c #6968AB",
"M. c #7875AA",
"N. c #6263BD",
"B. c #6669BA",
"V. c #6D71B8",
"C. c #7677B6",
"Z. c #5659C1",
"A. c #5B5BC3",
"S. c #5E64C1",
"D. c #6264C3",
"F. c #6469C5",
"G. c #696DC5",
"H. c #6366C8",
"J. c #6569C9",
"K. c #6B6ECB",
"L. c #6A72C3",
"P. c #6472CD",
"I. c #6B72CB",
"U. c #7074C4",
"Y. c #7879C4",
"T. c #7273CC",
"R. c #626BD0",
"E. c #6F75D5",
"W. c #7175D2",
"Q. c #767BD4",
"!. c #7A7CD4",
"~. c #7879D9",
"^. c #88778C",
"/. c #8878A6",
"(. c #807EDE",
"). c #7C84B0",
"_. c #7D89C8",
"`. c #7C84D6",
"'. c #7D82DA",
"]. c #7A81EA",
"[. c #8C879C",
"{. c #A29B88",
"}. c #B4A489",
"|. c #8E84B7",
" X c #A797BC",
".X c #BFAEA2",
"XX c #C09C9C",
"oX c #D0B08E",
"OX c #EDB49A",
"+X c #D3B1AF",
"@X c #DDB4AD",
"#X c #EAB8A8",
"$X c #ECBEBA",
"%X c #CAC3A8",
"&X c #CDC8AA",
"*X c #E5CBAC",
"=X c #EBC4B9",
"-X c #F4C6BA",
";X c #8787CB",
":X c #888ADA",
">X c #8E95D3",
",X c #A99EDE",
"<X c #8789E6",
"1X c #8E93EA",
"2X c #9394E8",
"3X c #9196F2",
"4X c #A39BF8",
"5X c #9CA5FE",
"6X c #E8C5C1",
"7X c #F7CBC5",
"8X c #FCD3CA",
"9X c #FCD9C8",
"0X c #FBD4D3",
"qX c #FFDAD7",
"wX c #F2E8CC",
"eX c #FBF4D4",
"rX c #FFFFE8",
/* pixels */
"- * + + + + + * * + . * * * + + o 2 2 2 2 2 2 & & & 2 & 5 7 2 2 O O & & * * r - * 8 8 - - - * $ $ % - > , - $ = , , 7 7 7 , , 7 ",
"* + + + + + + + + + + + * * * * 2 o o 2 2 & & 2 o 2 2 & o 2 2 2 2 o @ 2 2 2 8 , 8 , - , 8 , , , @ - , - - 7 7 > , 8 7 , , 7 8 > ",
"+ + + + + + + * * + * + * * * * 2 o & 2 2 & & & o & o & o = = 2 2 o 2 & - = * - , * * ; 8 < 8 8 = $ = , 7 = - 7 7 8 0 7 8 8 8 < ",
"* * * * + * 2 2 * * * 2 4 4 4 * o 2 2 2 2 2 2 o & & o o o 2 = & O @ 2 & - - * , % , - - - 8 - * 7 7 - 0 7 $ $ 7 7 7 0 r 0 < , r ",
"* * * * * + * * * * * 3 e j 4 - 2 2 2 O & 2 2 & 2 & & o 2 2 2 = = * w - * - - , - , 8 - - < < - 7 7 7 7 > 2 7 - > 8 t 8 , 8 1 , ",
"@ * @ * * + + * + + 2 3 w 3 3 3 2 2 2 o & & & 2 2 = = & & & 2 2 * 8 w - = & $ * - - - 0 < - - 0 , , - 7 , , > , , 0 0 8 7 8 8 , ",
"+ + @ * * * + + + * * * 2 * * 3 2 2 & o o o O 2 2 = & & & = 2 2 @ - - = - @ $ - 8 - ; 8 8 - - w 0 7 7 0 r 7 7 8 r 7 7 8 r r 0 q ",
"* * * * * * + + 2 + * 2 2 * @ 2 2 2 2 o o o & 2 2 2 & 2 2 5 2 = & - * * - & - - - 8 8 - 8 8 8 - 7 w 7 7 7 u u w 8 0 , > 8 u u q ",
"+ * * + + * @ + * + * 2 * 4 + * 2 2 2 @ o & & @ O 2 & 2 2 2 2 2 - - 7 * = $ % % < 8 - $ - < - < 7 8 8 , 7 8 q 0 8 7 , % , 1 q q ",
". * * + * ; * @ * + * 2 * * + ; 2 & & 2 2 @ o o 2 2 & = 2 2 & 2 = & * = - - = & * , $ % ; < - < , 8 , < 7 1 r r 0 8 > > < q q 0 ",
". + * * * 3 * * + + 2 4 2 @ * 3 2 2 & 2 2 & o & 2 2 & = 2 2 & & & $ - & = * * % - % @ @ - < - < , , = , 8 , 0 0 0 8 , : 1 q t 0 ",
"+ @ + + * * * * + + * * * + * 2 & O & & & & & o 2 & & = 2 2 & 2 * * , & & $ - 3 < % $ @ % , - - , = $ > 8 < r 8 7 0 0 < : 8 q q ",
"* * + + & + @ * * @ * @ * + & * 2 o @ 2 & & 2 2 O O 2 & & 2 2 2 7 - 7 = - - 8 - - - % - - - - % - - - < r 1 r 1 , , 0 < , 1 0 0 ",
"* * * * * & * * * * 3 & + * & * 2 O o 2 2 & 2 2 & o o 2 & & 2 2 8 * - * w r 0 - - - - < % < < - % > , 0 q r 0 , 1 1 1 1 0 0 8 1 ",
"* * * + & * * * * * * & & * * * & o o & 2 & 2 2 2 & 2 2 & @ - * 2 - * & 8 w 8 - , - , - % - 0 < % , 7 8 1 0 0 < 8 , : 0 0 1 1 : ",
"2 3 & + + & * * & 3 @ * @ @ * @ o 2 2 o & 2 2 2 O o & 2 = & = @ * - - $ * = - - % - < 0 - : < - , 8 < , , < r 8 < > , 8 1 > > 1 ",
"* 2 & & o @ @ & 2 7 2 @ @ & O 2 + & 2 * 7 7 * @ @ * 2 - - * @ & - * - - < - % : - , 8 , = - > > , a , < 8 8 8 , 8 , < 1 < > < q ",
"& & O o o & 2 2 2 w 2 O & 2 2 2 & @ * - 2 2 * = $ # @ = = - - - ; - ; 3 8 - % @ % % % > 1 q q 1 a 4 > 0 0 q 1 > < < < , , < 0 q ",
"& = @ @ O & & 2 2 2 2 & & 2 & 2 = & = - 2 - 7 7 a G G * X * 8 - < < ; 8 8 < % @ % > 1 7 , 1 , 1 l > ; < 8 0 8 > % < , % > < w < ",
"& * 2 2 2 & & & 2 & 2 2 & & & & * - = - * = 2 2 H :.-X+X4 $ 2 * ; 3 8 3 8 8 < @ $ , 8 8 < , > s z % - < 8 8 < , < 8 < % - < 0 < ",
"o & 2 2 & & @ & & 2 2 2 & @ & = = - - * = * * - P -.6X0X.X- = * - ; 8 - < 0 8 - % % > < 8 0 , k z $ - < 0 r r 0 0 8 8 , < 8 0 8 ",
"2 2 2 2 @ o o & & 2 2 & @ O @ & & - 2 2 - 8 2 l =.$.#X9X8XV O ; # - ; - ; w 8 - % % - < < < > x S = , , 8 q q q 0 , 1 8 8 1 0 q ",
"2 2 2 o O o & @ O 2 2 & @ @ & 2 = - - 4 5 7 h  .*.o. .$XqX.X= - * - % * - 8 , % $ % < < 1 > > x _ , 1 < 0 r 0 r 8 8 , 8 7 , 7 q ",
"2 O 2 2 2 2 2 & & 2 2 o @ 2 & 2 * $ $ e p a ' ;.:.1.` r.y.-XN $ , * % % , < % @ % - , 0 0 0 > k ` q > 0 r y u u 0 0 0 8 8 7 8 q ",
"2 2 o 2 2 2 O & 2 2 o @ & 2 & @ - - $ a z H 7.8.e.w.8.1.R u.V = ; - % % < 0 - % % % < < q < : a @.j > 0 t u u u 8 , 8 8 8 7 0 8 ",
"2 & o & 2 & o O 2 & @ o @ 2 & @ $ O O a *.5.2.8.w.w.:.I Y <.) 7 * ; < - 3 < - # > , < < q 0 1 7 ` L > 0 0 0 8 0 8 , 7 7 0 0 0 8 ",
"& 2 & 2 2 2 & & & 2 2 o & 2 4 h s k a z 7.~ *.q.*.w.6.%.Q Y 1.G l % - % < ; % & : < , , e q , > L ` 7 0 r 7 0 , 0 0 0 0 r q 0 0 ",
"o o 2 2 2 2 @ & o 2 2 O & 4 G -.r.#.1.<.9.<.:.R I $.8.+.F S [ p.u.a @ - ; < , % = 8 l D ` _ x O x ` 7 7 0 0 7 0 8 0 q 0 8 7 0 q ",
"o o O 2 2 & o o o 2 O & 2 V OX=X-XoX#.w.3.,.>.Y 1.4.R &.t... .a.:.l * 3 w 8 , , k ` =.3./ ^ ,.x L U 1 1 0 8 , , > , 7 0 7 7 0 y ",
"& O o 2 & o o o o 2 & 2 2 { 8X8X7X-Xr.O.9.9.7.7.O.H _ oX}.%X*X} X.p - 7 a a k _ ,./ ^ / 5.2.^ 2./ P 1 y 0 8 8 0 0 0 , 7 0 0 0 8 ",
"2 O 2 o & o o & o & 2 2 . V 0X0X7X7X$X-.7.9.0.0.X.G oXwX  m rXoXH Y _ F _ X.2.( ! 4.7.0.q.R 2.! +.s > 8 8 1 , 7 q q 0 7 0 0 0 7 ",
"2 & & 2 2 o O 2 O 2 2 & . g -X0X8X$X$XOX%.0.e.1.u.[ oXeX{.%XrX%XH ( 3.3.W ~ ^ 3.4.5.4.*.#.%.7.5.+.a , : 8 8 : 1 7 0 0 0 7 , 0 y ",
"O 2 2 2 2 & * = 2 7 = - $ A @X9X8X=X=X#XO.9.%.i.p.u.oXwXrX+XeXoX&.( 4.~ ~ ~ ~ ^ 4.3.+.&.7.5./ 3.%.[.>XA q q q q q t y 1 y q 8 0 ",
"& o 2 & 2 = 2 * 2 = * @ A 4X,X-X8X0X=X@X-.E 2.e.a.;.*XeXeX{ oX] >.3.3.3.E &.E E #.=.&.8.2.4.3.! @.>X5X5Xj.1 1 1 y q < : : 1 1 0 ",
"2 & & = w 7 2 * = & % 5 _.3X2X X=X9X9X8X*X-.%.w.@. .wXeXeX&X[ O.&.2.3.2.O.+.%.@.*.;.5.4.3.4.>.!  .2X2X2X>Xj : < 1 < 1 1 1 1 1 : ",
"2 & & 2 w w w 2 2 2 $ Z 2X1X3X>X>X=XqXqX-X$Xr.I I U ] ..t.` o.X.Y ^ ^ 2.I *.=.O.5.*.2.3.~ ~ ! o.[._.2X>X;XB : y y q 0 y 1 0 1 : ",
"2 2 2 = 8 2 8 3 2 7 & ).1X<X<X].;XJ oX-X0X7Xy.I / ^ Q R _ #.=.>.&.2.^ &.' J | i.%.E <./ W W o.^.:X:X<X<X1Xg.< y f u 1 : : 1 1 1 ",
"= 2 7 = = - 2 3 w * b :X<X<X:X'./.T T -.t.;.T 3.5./ 5.5.Q R ^ ^ 3.^ 5.#.M.<X|.-Xi.T ^ ^ &.} M.<X].:X<X:X<X_.t u y y 1 : 0 1 : 1 ",
"* - 2 & = 2 w r 8 @ n <X'.'.'.`./.E ( ! W ! 5.8.o.-.7.3.^ Y +.&./ / ( -.!.~./.7X#XR ~ ' ^.C.'.!.`.'.<X'.(.C.j f u u q 1 y 0 1 1 ",
"w 2 = & * * 2 8 2 & n (.Q.Q.Q.U.M.J o.E $.@.] K M.^.;.~ #.^.M.K } ] ` J G.Y.j.$XOX` K L.'.~.~.~.'.~.Q.Q.~.C.t y y q 1 y 1 y y 1 ",
"e 8 - = - 2 - * - $ b Q.I.T.W.W.~.T.M.g.j.h.B.V.P.V.' ' ^.G.E.K.N.m.m.V.L.V.V.XXy.A U.T.T.W.W.E.W.W.W.T.Q.g.1 1 y q y 1 q q q 1 ",
"* - * - - 7 8 - - % 4 B.K.I.K.G.K.K.U.G.G.K.J.K.K.I.h.m.J.I.L.I.G.G.T.I.J.I.L.m.m.V.I.G.G.K.K.K.K.K.K.K.I.B 1 0 q y y : : q y q ",
"@ $ = $ = - - - 3 - $ f.H.F.F.F.H.H.H.J.F.F.G.N.F.F.J.G.F.F.J.J.J.H.D.J.J.F.F.J.R.H.G.F.F.F.J.F.H.J.J.F.b.g 1 0 q y y q q y q q ",
"- % @ @ - , = $ ; 8 C D.b.x.S.S.N.N.D.v.N.N.N.D.S.S.D.N.n.S.n.n.S.H.S.n.n.S.S.n.n.D.n.D.S.S.n.D.S.D.n.n.J.Z : q u y < q y 1 : 1 ",
", # @ & - < - - % 4 h.x.n c f.A.v.v.n.v.v.v.Z.n.v.v.v.A.v.x.n.x.x.z.v.v.A.v.v.n.v.Z.Z.n.v.v.c.v.v.x.l.n.S.x.w y q y y 1 : : 1 1 ",
"$ $ $ - - , 8 8 % - 4 5 < < 4 C x.c.c.c.c.z.z.z.z.v.c.x.x.k.l.l.l.l.c.l.z.z.l.c.c.c.c.Z.Z.c.Z.c.v.l.f.s.S.f.e u 1 1 y y y q 1 : ",
"@ # * , - * * , - - - < 8 - < ; 5 C f.k.l.v.c.x.k.f.d.n c 6 n s.f.k.l.c.c.z.l.l.z.l.k.f.f.d.C C M v q q B v y y y 1 1 q y y 1 1 ",
"- % % , 0 < - - - ; 8 8 3 - ; < : % 4 i b M M 6 5 w w < < < 1 q 4 i i c b b b c b 5 i i e r w 1 q 1 < q 1 y y q : 1 q : 1 y y 1 ",
"% * % - 9 ; - # # - ; ; 8 < ; ; 8 3 ; < % : ; : < < 8 8 8 3 ; , % < 1 1 : < : : : : < 1 q 0 q 1 0 1 q q q y y 1 1 1 1 1 y y y 1 ",
"# % * ; ; - # # # % % 9 r ; # < 0 0 8 - ; < r r 8 ; - 3 9 < < - 8 , < 8 0 0 1 r q < - < 0 1 a d 1 1 q q 1 y y q y y 1 1 1 y y y ",
"# # - ; - # # # % ; 9 j 9 < ; 9 8 8 8 ; ; 8 r r ; - < 8 r r 0 r w , * , < 8 3 9 9 1 < 1 1 0 1 q d 1 q q 1 y y y y y 1 1 1 : : y ",
"% # - ; # # ; # # < j j ; ; < 1 8 8 ; ; < 8 < < 0 8 ; 8 8 8 8 8 < < ; - < 8 0 ; - < 0 q 0 < 1 a d 1 y y q y y y y 1 1 y y 1 1 y ",
"; # - ; ; - ; % - - e d 1 ; ; 9 < ; % < 1 - ; < 8 8 ; ; < < 8 8 * , < - % 1 q < q 1 < < ; < 9 q y q q q y 1 q q 1 1 1 y y y y y ",
"< - - < ; - ; % < ; 9 j q < 9 q : # # 1 1 ; ; 8 r 0 < < < ; ; < < - % ; ; < < q t q 1 < 1 < q q q y 1 y y q 1 1 y y 1 : : y y 1 ",
"; * - - ; - % - ; < 8 9 ; < ; % % % % < 8 8 1 8 q r 0 9 < ; ; < 9 ; < < ; ; 0 q 9 q d q 1 1 q q y y y 1 1 y 1 q y y y 1 y f y 1 ",
"@ % - - ; - - < ; 8 ; < < < # % - < < - ; < < % ; < < < 0 < ; < t q 1 < < < 0 9 q q q 1 1 1 1 q y d 1 : 1 y y y y y 1 y f f f y ",
"@ % , , 8 - - - - ; < < 8 < - % , < 0 r 1 < < - % - - 8 0 0 8 < 0 q r 1 9 t t q s 1 : q y q q y y y 1 1 1 y 1 y y y y y f y y f ",
"$ * * - - , , = - - - < < 0 < - % < q t q 0 < < < - 0 q 0 - ; 0 < 8 q t t q 1 < 1 1 1 y q 1 q y y y y y 1 1 y f f y f y y y f f ",
", - * % , w 7 , < - % - < < < - - < q t q 1 < < : 1 0 1 < 1 8 0 < q q q q 9 1 - 1 1 y y q 1 a y y y y 1 y 1 y f y y y y 1 y f f ",
"8 - % $ * - 7 , 8 * $ - - < < 1 < 9 q q w < < % % 1 9 0 0 q q 1 0 t t q 1 1 q q 1 1 y a 1 q y y 1 y y 1 y 1 y f y y y y y y y 1 ",
"8 7 , = = - , 7 , - $ , 8 8 0 0 1 1 9 1 < < < < % < q d d 9 q t 0 t d d q 9 q 0 : 1 y 1 1 y y y y y y 1 1 1 y y y y 1 y y y 1 1 ",
", 7 7 - = , 8 0 8 > = , < 8 < , < < 1 < < < 1 < % < 9 q t q q q 0 d d t q r q 1 : 1 y 1 1 1 y y y y 1 1 y y y y 1 y y 1 y y 1 f ",
"= 7 , , , , , 7 7 , 7 , : , , - < < < < < 1 < 1 - 0 q < 1 d t ; q d t 1 1 q q q 1 a 1 1 1 y y y 1 1 1 1 y y y y y y y y y y y f ",
", 7 7 7 7 7 7 , - 7 7 , 8 8 < , < < : ; ; < 1 q 1 q 9 1 0 q 0 9 t d q < 9 d t 1 1 1 1 1 1 y 1 1 1 y : 1 y y y y y y y y 1 y f y "
};
