/* XPM */
static char *_3218005ff874a3f9f8f663fb46be2261uXab5C5bHQFCyHo[] = {
/* columns rows colors chars-per-pixel */
"64 64 199 2 ",
"   c #3A1E08",
".  c #3D220C",
"X  c #441F0E",
"o  c #44220E",
"O  c #552508",
"+  c #452513",
"@  c #4B2512",
"#  c #472916",
"$  c #4D2915",
"%  c #442C1D",
"&  c #4C2D19",
"*  c #512A17",
"=  c #532D19",
"-  c #582F19",
";  c #4D321D",
":  c #5D3116",
">  c #53321C",
",  c #5C321C",
"<  c #5F391F",
"1  c #613316",
"2  c #61371D",
"3  c #63391E",
"4  c #693B1D",
"5  c #473624",
"6  c #4C3623",
"7  c #4C3926",
"8  c #4D3D2C",
"9  c #533621",
"0  c #543B24",
"q  c #5A3D25",
"w  c #553D2A",
"e  c #593F29",
"r  c #533F30",
"t  c #653B21",
"y  c #6A3E22",
"u  c #653E28",
"i  c #554026",
"p  c #5B4126",
"a  c #54422C",
"s  c #5C432B",
"d  c #5C4A2F",
"f  c #4E4330",
"g  c #544432",
"h  c #5A4632",
"j  c #534834",
"k  c #5C4B33",
"l  c #5A4D39",
"z  c #5E5037",
"x  c #5D533D",
"c  c #654225",
"v  c #6D4225",
"b  c #6C4827",
"n  c #63452B",
"m  c #6C4529",
"M  c #64492D",
"N  c #6B4A2C",
"B  c #714526",
"V  c #774827",
"C  c #724629",
"Z  c #76492A",
"A  c #784A2B",
"S  c #7A4C2D",
"D  c #7A4D2D",
"F  c #7C4E2E",
"G  c #76542E",
"H  c #7D502F",
"J  c #684730",
"K  c #644C33",
"L  c #654E35",
"P  c #6B4D32",
"I  c #624D3A",
"U  c #734D31",
"Y  c #7B4F30",
"T  c #655135",
"R  c #6B5335",
"E  c #6F5A37",
"W  c #64543B",
"Q  c #6B553A",
"!  c #655A3D",
"~  c #6D5A3D",
"^  c #6E5A3E",
"/  c #735335",
"(  c #7D5131",
")  c #7F5030",
"_  c #715A36",
"`  c #7E5934",
"'  c #73553A",
"]  c #7A563D",
"[  c #725C3D",
"{  c #7A5B39",
"}  c #7D6135",
"|  c #74613D",
" . c #7A623D",
".. c #5E5642",
"X. c #635641",
"o. c #6B5742",
"O. c #645B44",
"+. c #6F5D41",
"@. c #6C5C43",
"#. c #655D49",
"$. c #6A5D49",
"%. c #735641",
"&. c #725D41",
"*. c #715E41",
"=. c #7A5C43",
"-. c #6D6244",
";. c #65624E",
":. c #6C634A",
">. c #746344",
",. c #796545",
"<. c #766845",
"1. c #7A6946",
"2. c #73654B",
"3. c #796649",
"4. c #75694C",
"5. c #7B6B4B",
"6. c #7D714F",
"7. c #6B6553",
"8. c #6C6A54",
"9. c #666958",
"0. c #6E6E5A",
"q. c #736652",
"w. c #756A54",
"e. c #796D54",
"r. c #746D5A",
"t. c #7A6E5A",
"y. c #6D735E",
"u. c #777057",
"i. c #7C7255",
"p. c #74725D",
"a. c #7C745C",
"s. c #766F60",
"d. c #6A7160",
"f. c #757461",
"g. c #7A7562",
"h. c #7C7963",
"j. c #78796C",
"k. c #7D7F70",
"l. c #80502E",
"z. c #815231",
"x. c #815332",
"c. c #825C35",
"v. c #845D3A",
"b. c #836538",
"n. c #83623E",
"m. c #8A663C",
"M. c #8B693C",
"N. c #916C3D",
"B. c #98713F",
"V. c #855F45",
"C. c #846945",
"Z. c #856B44",
"A. c #8D6B41",
"S. c #81634D",
"D. c #936D43",
"F. c #8D7147",
"G. c #84724E",
"H. c #9B7346",
"J. c #9E7649",
"K. c #846F5F",
"L. c #887652",
"P. c #80765D",
"I. c #80785D",
"U. c #866F60",
"Y. c #8A7363",
"T. c #817B63",
"R. c #8B776A",
"E. c #827E69",
"W. c #88796B",
"Q. c #957762",
"!. c #937B6A",
"~. c #9B7F6C",
"^. c #8E7D72",
"/. c #917E71",
"(. c #85806B",
"). c #88846B",
"_. c #8D8475",
"`. c #948277",
"'. c #95887D",
"]. c #9B8A7F",
"[. c #908C8A",
"{. c #8D8F90",
"}. c #9C9996",
"|. c #A4978E",
" X c #9DA1A4",
".X c #AAA8A7",
"XX c #B3AFAC",
"oX c #B4B4B4",
"OX c #BDBAB9",
"+X c #C1BBB7",
"@X c #C5BEBA",
"#X c #BFBFC0",
"$X c #C5C3C2",
"%X c #C2C9CE",
"&X c #C8CCCF",
"*X c #C7CED3",
"=X c #CED1D4",
"-X c #CFD7DD",
";X c #D3DADF",
/* pixels */
"B y y A ) B Y y B v B Z v S Z y Z B Z v B m v Z B B A B A m v = y t y A x.B l.t y v B B v Z B y Z m Z B v B v Z Z B Z B A B m , ",
"B v y A H v v 3 v y v B v B v y B C Z y B v v C y u F v A B v = t t y A x.B v 2 y y v B B v v t B B Z y v v y B v t D B A B v 2 ",
"m y y A x.y v , # , & > > = & = , & 9 = = , & & Z 3 F B A B m = t t t A x.y v q & , > > = = = , = > > = & , > > v < D B Y B v , ",
"B v v S H v y n ! n K ^ @.*.*.0 L @.@.Q ! 9 L L B t F B A B v = y t 4 Y x.y y m ! s s *.! *.-.p L >.^ +.-.9 K W y 3 D C Z C B , ",
"B y y F x.y y N 2.M Q 3.^ L L 9 h K L *.*.w [ ^ C t Y B A B m * y 3 3 F x.v y N >.M K >.^ L L q s K R *.,.q Q ^ y t D B Z Z v , ",
"m v y l.x.y y P &.n K *.q 9 s > 0 0 q Q @.0 Q ^ Z t l.B A B C = t 4 3 H x.v y P 2.n M 4.0 & s > 9 w q T >.q Q [ y t D y A Z y 9 ",
"B m y x.) y y N >.M R 3.e Q 3.e Q 3.P ' >.0 Q [ U t Y y A C m = t t 3 F x.y y U 3.M T 5.s T 5.s W 5.K Q 5.p ^ [ B t Y B A Z B t ",
"B y y x.x.y y P 3.J M Q n Q -.q Q -.n L Q 9 &.&.Y t Y B A Z B = y 3 3 x.F v y P 5.P s *.q K >.p T >.P R ^ 0 *.>.y t Y y A A y - ",
"B y B x.x.y y P 3.M 9 s 9 L >.0 T +.e q s ; *.&.Y t x.B Y Z B - t t 3 x.x.y y / 5.P > s ; d >.p T -.p q a > &.3.B t l.B A Z m - ",
"B m B x.x.y y U 2.M Q 4.0 k X.w W W a W >.e @.*.Y t x.y Y Z m = t t 4 x.x.y y P 3.K T 2.7 a -.a k ! s W 5.s ^ 3.B t Y B Z A y 9 ",
"m y B x.x.y y P w.P I $.s l 2.s ! :.n o.#.0 +.*.Y t x.y Y D m = 3 t y x.x.y v P w.M d :.a z 4.a W :.K W :.q *.2.B t Y B D D B , ",
"y m B x.x.y y Q r.P l f.h M b.c ) b.s e.r.5 q.q.Y t l.y Y D B = t 3 v x.x.y y ' a.I f T.a s M.v G } 0 q.p.7 2.w.m t Y y A x.y U ",
"B B B x.x.y y ' g.I l g.g M D.c ` A.U r.s.7 t.t.Y t Y y l.Y y = 3 t v F x.y y ' E.W j E.g M H.b ` m.a w.g.7 r.a.y t l.y D x.t V.",
"B y Z x.Y y y P w.M ..0.h N D.y ` m.U r.7.5 $.q.Y t l.y Y D B = t t B F x.y y / r.L g g.h M H.v ) M.p w.8.a +.2.Z u l.B A S u =.",
"y B Z l.x.y y u h w w.r.w W D.c c.A.s #.r.I w r Y t Y y l.D m = 3 t B S l.y v n g w :.r.8 d J.m c.A.h O.g.X.w e C u Y y D Y y u ",
"B y Z Y Y y y @.s.s.a.e.s K ,.n =.[ h *.e.h.r.7.Y t Y B x.A y * t t B F H y y %.9.r.I.i.0 k Z.K { >.T ^ i.W.0.t.y 3 Y y D x.y - ",
"B y Z D D y y %.g.7.o.C.v ' ;.w X.#./ m.C.X.8.q.Y t A y Y A B * 3 t Z F F v y %.r.7.! D.c Q :.k k 2./ v.,.-.0.r.Z t Y B A Y y , ",
"y B Z D Y y y J X.g w m 3 q h 9 w g v N u 9 g I Y t Y y Y A m * t t B F F y y P I a 9 G < q l 9 8 g v m m 7 h I Z t H y Z Y y - ",
"B B A Y Y y y %.j.f.r.S.n _ ! k $.W J C.5.r.0.s.x.t D y Y Z y * 3 t V F A y y =.9.f.w.G.n K :.W W ! S  .6.a.9.f.Z t S y A Y B - ",
"B u A Y D y y ' u.q.a.0.a l D.v c.A.a ..a.a.q.q.l.2 D y D Z m * 3 3 Z F Z v y ' w.8.I.p.7 h H.b ` C.k ..a.a.8.2.C t ( t Z Y y , ",
"C y A D D y B q w w $.7.a R D.c ) A.J w.;.r 7 w l.t D y D Z m * t 3 A A B y v u 7 0 x p.g M H.b ` M.0 :.8.I 7 w B t l.y Z S y , ",
"y y C A A y y Q f.R l f.w s D.c ` D.U t.r.5 q.r.x.2 Y y Y Y y * 3 t A S Z v v Q f.I j h.g M H.b ` m.p q.p.7 q.r.Z t Y y Z S y - ",
"B B A A Y y y ' g.I l g.h K M.v ` m.n t.f.6 t.t.Y 9 l.y D A m * t t A A Z v v ' h.I j (.g p B.b ` M.i w.g.7 w.e.B t l.y A Y m - ",
"y m Z A Y y y P e.K k 8.h l | p R ^ p w.7.6 2.2.Y t l.y D Y y * t t A S Z y y / i.T a g.d d <.M P | s -.8.0 2.e.y t Y y A x.y - ",
"B C Z D A y y P 3.J Q $.6 W :.0 W :.M z -.a *.*.Y 2 l.y l.Y y * t t Z A A y y / >.M T -.0 z 4.a W 2.P l 5.s [ >.m t Y y A x.y , ",
"y B C D Y y y / 2.P L >.0 k -.0 T W 0 ^ 3.q *.*.Z q l.y Y Y y = t 3 A S A v y / 4.M T 5.0 a | p T ! 0 Q 5.p ^ ,.y t x.y A x.y , ",
"C y C D Y y y U 3.P # % & Q 2.s Q -.s ; % # >.>.B 2 x.y Y Y y * 3 3 B A Z v y / 5.P # % # T <.s T >.n & % # >.>.y t Y y A x.y , ",
"y y C D A y m P >.M K ! q Q >.p Q >.M T +.> [ [ Z t x.B Y Y m $ t t Z A A y y / 5.M d >.0 W 4.s T >.P K >.0 ^ >.y t l.B A x.y 9 ",
"C y Z C A y y U +.K K >.q T >.q T >.n [ >.q ~ [ B t l.B l.l.B = t 3 B A A B y U >.d K 5.i T <.p T >.M Q 5.q Q ^ y t x.y B x.y , ",
"y B A B Z y y P +.n L >.e ; ; = ; ; > [ >.0 Q @.B q l.4 Z l.B & 3 4 C 4 y y y / | n M >.i ; > ; ; ; > Q >.q Q >.y t x.C A x.y , ",
"B y Y C B B y P >.N Q >.+.! ^ q T ^ [ >.>.0 [ [ B 2 V.[.!.Y Z * t 3 ] `.R.v y / <.M K 1.>.[ | s T | >.<.,.p Q %.y t l.A B x.B 9 ",
"B u A y B y y U [ n R { _ {  .q R  .|  .| < E _ C , !.;X@XF Z = t 1 K.;X$XC y /  .M M  .|  . .n P  .| {  .q _ _ u t Y S B l.B , ",
"v v V v B y m ,   $ . . . . . o . . . . .   X   4 O Q.=X@X) U * t 1 U.=X$Xy 4 -   o o . . o . o o . . . . o o . 4 3 H S B H B , ",
"B v V v B v v N W c M R T R Q 9 M R R R R ; R T./.Y.|.XX.Xx.A * t 1 K. XXXR.R.W.4.c s E R E _ p M | E R _ 9 K R c 3 H H v S m , ",
"v v Z v B y y U >.M Q 3. .>.>.n ^ >.>.,.>.q *._.^.R.[.{.}.x.A * t 1 Y.{.}._.!.'.E.M T 1.>.<.1.M Q 1. .1.G.p ~ >.3 3 ) H B Z B , ",
"v v Z v B v y P >.M K *.s ; 9 > > > q ^ >.0 ^ E 4 O Q.*X+XU U = u : !.&XOXv 1 b >.M M <.s ; 0 > > 0 p E >.0 R | 3 3 H H v Z B , ",
"v v Z v B v y R 2.K K >.q K *.9 T ! p { >.9 [ *.m - ~.=X+XZ Y * t 1 R.*X$XU t ' 5.M K 5.q d >.p T | n R <.0 ^  .3 3 ) ) v Z Z , ",
"v v Z B B B y U >.M R 5.p Q 3.s Q >.M [ 3.0 *.*.y - ~.oXXX] A * t 1 Y.oXXXU y / 5.M T 5.p T 4.M T <.M E 5.p [ >.3 3 S ( v Z B , ",
"B v Z y B y t / 5.M & 6 > R -.p Q -.p 7 6 $ =.[ t 1 !.*XOXY Y * t 1 U.%X#XC 4 ` 6.P # 6 $ T <.s T <.p ; ; $ ,.1.2 2 S F v Z Z , ",
"y v Z B D v y ' 5.M n +.q l ! 0 T Q 6 T @.0 >.*.y 3 V.].Y.Z Y * y 3 ] '.^.y y ' 4.K M >.6 a >.p K ! 0 T >.0 >.<.2 3 x.Y v A Z = ",
"B v Z Z Z y y / 5.n Q :.0 W 4.0 W :.s x -.s ^ *.t t l.V 4 V Y * t t A 4 4 v y _ >.J Q 2.7 x 2.p z :.M k 5.p ^ <.2 3 S H v S Z - ",
"B v B Z Z t y ' e.L l w.h W >.p Q | e 2.8.6 2.2.t 2 l.Y B B Y * t t A B Z y 4 ] i.L a a.h T <.p R >.s 2.8.0 >.4., 3 H H v A A = ",
"y B Z Z Z v y ' g.L l g.h P N.v b.m.c t.r.7 e.q.u t H Y y Z Y * t t A B Z y y ] h.z j (.g p H.b ` b.0 w.g.7 q.e.2 3 ) H B A Z - ",
"B y B Z Z y 4 %.j.Q l g.g M D.c ` N.N r.r.6 a.t.y t x.S Z C Y * t t A Z B y y =.(.W f E.g M H.b ` N.p w.p.7 r.i.2 3 H x.B Z S = ",
"y m B Z C y v n g 0 $.8.h R D.c ` D.M q.9.w w a y t Y x.C m Y @ t t A B B y y U g 0 x p.g M J.b ` D.i 2.0.h w a 2 t l.x.B Z U - ",
"B y B Z Z y y ' :.#.P.0.h x D.v c.C.9 ..r.e.#.#.y t Y x.C Z Y @ t t A B B y y ' #.#.a.8.7 k J.N b.C.d x h.i.:.$.3 t Y x.Z Z A = ",
"B y B Z A y 4 =.k.g.e.L.N [ -.K :.-.M C.G.a.j.g.C t Y x.Z Y Z @ t t A V B y t S.d.f.e.L.n T >.T ! | N ,.L.h.f.g.y t S x.Z A A = ",
"m B B Z A y t ' $.l M ) m N X.q l o.M ( ( s o.o.y t S x.C U Y @ t y V B Z y y ] +.k M v.m M X.s k +.c ` ` s X.@.y 3 A x.Z A S = ",
"y B B Z A y t %.q.#.T n.m _ x w X.W m v.] W :.7.C t Z Y Z S ( @ t y Z V A y 4 =.;.;.W m.m T X.K k -.b `  .X.8.7.v 3 A x.Z Z S = ",
"B B B B A m t =.j.g.P.P.M W 1.m ,.<.a [ i.(.g.t.U t A ) Z Z Y @ t y Z B D y 4 3.y.T.a.i.p z F.R ] <.K [ i.(.p.a.c y A x.Z Z S = ",
"B y B B A y y m k h t.s.g ! H.v ` D.s #.y.o.d k C t A x.A C ] @ t u A B A y v P k h w.p.f k J.b v.F.a O.g.-.h k 3 t Z x.C C F = ",
"y B B B Z y y P ..h X.a.h N H.c ` D.N t.8.5 l X.m t A x.S y ) @ t y A v Z y v U ..d j a.k n J.b c.M.p e.0.a I O.y t Z x.V C F * ",
"C B C y A y y %.E.W x (.h M H.v c.N.N t.f.7 P.a.B t S x.Z B ( @ t y Z v B v 4 ,.).X.g (.g M J.b c.N.p w.g.7 i.a.y t Z x.A B S * ",
"u C S y S y y ' a.L l g.I K M.c ` } p t.r.6 w.e.y t S x.Z B Y @ t y Z v B v 4 =.h.T j (.j s N.b G m.i 4.p.7 2.w.y t Z ) A Z F = ",
"B B C C S y u ' w.P T :.i W 2.i ! -.s X.2.0 *.>.B t D x.Z C ) @ t y Z v A v y / i.P k w.a z 5.d W 4.d W -.s >.1.y t Z x.A B S * ",
"y Z C C S y y U 5.n [ 5.i T ! i T ! w W 5.s [ >.m t D ) Z y ) @ t y Z B A y y { 5.K R 6.0 a -.s W -.p ! 6.M ^ <.t t Z x.A B F * ",
"v B C C S v t / 5.J 9 s , T >.i T | 7 p s ; >.*.y t S x.B B F + t y Z B F y y ] G.K > d & k <.s T <.0 q s ; >.,.3 y Z x.Z C A , ",
"B B V V S y y / 2.M 0 j 9 ^ <.s Q -.M s k ; ,.*.y t A x.B v S @ t u B B A y y / 5.P 9 z > T <.M Q <.N a k ;  .,.3 t Z x.B Z C %.",
"y B C C A y 4 P >.M R 1.s ^ 5.p Q 5.N ,.5.p [ ^ y t Z x.B B S + t y Z B F y y / <.K Q G.s Q 6.d ! 5.N { 5.p _ >.2 y B x.Z Z B =.",
"m B C Z A v 4 / 2.M K >.q p K > p s q [ >.0 [ [ m y B x.Z m A X t y B B D y y / <.M M 1.0 9 M < p M q R <.q ^ <.t u v x.Z Z B P ",
"B B Z Z Z v 4 R >.M T >.T i a > 0 s s >.>.0 ^ [ B t B x.Z B A + t y V B Z y y / >.M M 1.T s d 9 0 s d | <.s ^ >.y y v x.A Z Z @ ",
"y C Z B v v 3 / >.N T >.>.,.5.p ^ 1.>.,.<.9 [ ^ m t v x.Z B Z o t y V B C 4 y / | M T 1.>.<.1.M Q 1.<.>.,.q Q [ t y v l.A Z Z @ ",
"m B Z y y y y N c c c c N c c 3 c n n c m < u c Z t B F Z Z m X t y V v B 3 y Z p c < n N c c t c b c c n t u n m y y l.A Z C @ ",
"B B S y 2 v t y t t , y m , 3 y 3 v y , v 3 t u t y B l.Z Z Z X y u A v 3 v 2 u 3 3 < 3 Z 3 3 u t v t 3 y t 2 y t y B Y F Z Z @ "
};
