/* XPM */
static char *d96e1ce9093a45fdfe2bc01d5d97132aiBw3mn5JHiBrcsqb[] = {
/* columns rows colors chars-per-pixel */
"64 64 139 2 ",
"   c #1A470C",
".  c #1C4A0E",
"X  c #1E510F",
"o  c #1E4D11",
"O  c #25590F",
"+  c #214E13",
"@  c #235315",
"#  c #295716",
"$  c #265915",
"%  c #295B16",
"&  c #265519",
"*  c #29561B",
"=  c #275A18",
"-  c #2B5B1C",
";  c #315F1E",
":  c #2D6116",
">  c #2E611D",
",  c #31641E",
"<  c #35691E",
"1  c #2E5E21",
"2  c #315E23",
"3  c #2F6220",
"4  c #2F6220",
"5  c #306120",
"6  c #326020",
"7  c #336121",
"8  c #316220",
"9  c #306320",
"0  c #316221",
"q  c #306321",
"w  c #326321",
"e  c #306022",
"r  c #316123",
"t  c #326322",
"y  c #356323",
"u  c #316421",
"i  c #326520",
"p  c #336621",
"a  c #316422",
"s  c #336422",
"d  c #326522",
"f  c #336423",
"g  c #326523",
"h  c #336623",
"j  c #346523",
"k  c #346722",
"l  c #306024",
"z  c #316125",
"x  c #336025",
"c  c #326224",
"v  c #336325",
"b  c #326226",
"n  c #336327",
"m  c #346126",
"M  c #336624",
"N  c #346524",
"B  c #366424",
"V  c #356624",
"C  c #346724",
"Z  c #356625",
"A  c #346725",
"S  c #366725",
"D  c #346426",
"F  c #356527",
"G  c #366726",
"H  c #336422",
"J  c #386625",
"K  c #346820",
"L  c #356921",
"P  c #356823",
"I  c #366A22",
"U  c #366B23",
"Y  c #376B23",
"T  c #356825",
"R  c #366924",
"E  c #376A25",
"W  c #356826",
"Q  c #376826",
"!  c #366926",
"~  c #376827",
"^  c #366927",
"/  c #366923",
"(  c #386927",
")  c #386B26",
"_  c #386C24",
"`  c #396D25",
"'  c #396C27",
"]  c #3A6E26",
"[  c #3A6F27",
"{  c #3A6D24",
"}  c #346428",
"|  c #356529",
" . c #366628",
".. c #37672B",
"X. c #366629",
"o. c #38652A",
"O. c #39662B",
"+. c #376A28",
"@. c #386928",
"#. c #386B28",
"$. c #386B29",
"%. c #3A6B29",
"&. c #39692B",
"*. c #3A6D28",
"=. c #3B6E29",
"-. c #3A6D2A",
";. c #3B6C2B",
":. c #3A6D2B",
">. c #3B6E2B",
",. c #3C6F2A",
"<. c #38682C",
"1. c #3B6B2D",
"2. c #3C692E",
"3. c #3C6D2C",
"4. c #3B6C29",
"5. c #3D7126",
"6. c #3C7028",
"7. c #3C7129",
"8. c #3D7129",
"9. c #3E722A",
"0. c #3D702D",
"q. c #3E712C",
"w. c #3E712E",
"e. c #3E7229",
"r. c #3D6D31",
"t. c #3F6C31",
"y. c #3E6E30",
"u. c #3E6E31",
"i. c #416F2E",
"p. c #41742B",
"a. c #45792E",
"s. c #407330",
"d. c #447732",
"f. c #437035",
"g. c #447531",
"h. c #467934",
"j. c #467A30",
"k. c #497C33",
"l. c #4E7C3B",
/* pixels */
"1 * + @ + + * + *     * 2 * * + o & l & l l l 1 & & l & n n n & & & 1 & 1 & <.& - s j - - > = @ = = - > > = @ @ a > > 4 a 4 > a ",
"* @ + + + + + + * + + + * + * * & & & l l & & & o 1 l & & l l n & o & & 1 1 $.4 o.- - , 7 , > j @ - 4 - > W W 4 > g a > : a a = ",
"* @ + + + * * 2 * * + * * * * * & & & & l l & & & & & & o & & l l o 1 & 1 = = = M = # , j 5 5 j = = = 3 > = = 4 g a a A a a a K ",
"* * * * * * * 2 2 * * * 2 2.2 * & l l & & n l & & & o o o l 1 & & o l & 1 1 = l % - - - > j , # +.> > $.M = @ M a 4 g 7.[ , , [ ",
"1 * 1 * * + + * * * * 2 f.f.2.* l n l & & b b & 1 & & o l l l & = = <.= = 1 = g $ 2 j , ; j , - 4 4 4 4 4 4 4 > $ W 7.h : K K : ",
"@ @ @ * * + * + + * 2 2 2 2 2 2 | 1 & & & & & 1 l & l o l o l b 1 | r.& = @ & = , > - j , = - ( > - > - > - > > : W $.h a a a 4 ",
"+ + + * 1 * + * + * * 2 * * * 2 | 1 & & o o o 1 1 & l & & & l l o = = & 1 & = l j - - 5 5 - , J :.4 4 :.$.M 4 ^ :.4 > U [ [ U [ ",
"1 * * 2 1 * + + 2 * * 2 2 * * 2 & l & o o & 1 & l 1 & l l | l & @ l = & } X = 4 - j ( j 5 ( j - 4 A A 4 M w.w.4 A A > = 4 w.h.^ ",
"+ 2 *   + * * + *   2 2 * O.+ 2 z l 1 & & & & & 1 1 & 1 l 1 1 z 1 4 n = - $ - * G %.= @ - , - ( 4 U 4 4 > s :.U W 4 > > : , U [ ",
"  * * * * 2 * * * * 2 2 * * + * z & & 1 & & o & & 1 & @ l 1 & 1 & & 4 & 1 - - $ = 5 = = j j - , 4 W > h W G :.U 7.K > : < [ 6.U ",
"+ * * * 2 2 * * + * 2 2 2 + 2 2 l 1 1 1 l 1 & & 1 1 & 1 l l & 1 & @ 1 o 1 & > & - - # $ > 5 ; 5 > > % > s > ) U ) K > > < 6.7.U ",
"+ * * + * * * 2   + * * * + 2 2 o & & & & & & o 1 1 1 1 1 1 & 1 1 4 z & = @ > 5 , - $ $ - ; - , 4 > @ > K > ) ) > W [ > > < 6.6.",
"* * + + * + + * * * 2 * * + * * & & & 1 1 & 1 z & & & & * 1 1 b l 1 4 * 4 1 s 3 - - - ; , - - = > > = M ) W ) U : < ) < : , U _ ",
"* * * * 2 * * 2 2 * 2 + * * * * b & o b | & 1 r.& o & 1 & & 1 z 4 & 1 & :.<.) & , - - , - ; 5 , @ 4 4 ^ 7.$.[ > U U , U ) [ U < ",
"* 2 * * * * * 2 * 2 * * * * * * & o o & & & & z 1 & 1 l & & - * 4 & = & | | M & 7 - 7 , % - ( G @ M h , h K ) : ) > > U [ < < , ",
"2 2 * + + * * 2 + 2   2 * + 2 * & z z o & | n & 1 @ & 1 & & 1 @ l 1 l X * = 3 3 = = G %.- , 5 > > [ h : > W 7.U , : : U < % : < ",
"* 2 & 1 . & o 1 & <.l o o & & l & & 1 1 1 l = X + 5 1 - l - @ & - = - j 7 = % , > a A > = = : > > > h h ) U > > U > > ) U > > 7.",
"* * o + . 1 1 2 l <.l & & l & l & & & 1 1 1 1 1 = & - - & - 1 - ; ; - j G ; = # $ $ : : U w.7.U > > , K ) ) W > , > > > s , K 7.",
"1 * + 1 o 1 1 1 } l l & l l & l 1 & & l 1 1 1 n 1 @ & * o - X.- B B 5 j G j = @ : a U A a , : : > > > h K W > > > s > % > W ) s ",
"@ 1 2 1 1 & 1 o l & 1 l & & & 1 1 & 1 1 1 = 1 b - & = - & - 2 & 2 B 7 , j ( 5 $ O > U U a : , K > : > : W K K > > U K > % K ) > ",
"& & b l & @ & & & 1 l l & & & l & = 1 = & = 1 = * 1 = @ 2 - & - - ; 7 ; 3 +.G - : = = > U [ A , : > : 4 U [ 7.$.) ) K , K U U U ",
"1 1 b & @ o & & & 1 l & & o & l & 1 4 1 1 1 l = = G * @ - 1 & 5 # ; , - > W U 5 > > > 4 a 4 > > a > > , U [ [ [ U s > s K 4 U :.",
"l 1 l & & o & & & l l & & & & l = 1 4 l g g z 1 - 5 - $ = - - > # - % - 4 M 4 : X : , a a : , [ A h > , M $.) ) K 4 , s , > s :.",
"1 & 1 & | 1 l & & } l o & & & l = = = g g 4 1 = G - G 5 @ % 2 $ ; - % - 4 4 = X a > , U [ U , < K a , h $.w.w.d.U :.' U s , U :.",
"l & & 1 z l & o z 1 & & & 1 & o 1 = = = j G G 5 %., = - = = ; G ; ; % # G %., - = % : > [ > , U U s 5 U 0.w.p.0.> , s K s , s K ",
"l & & & z & & & & & & & & 1 l & = 1 = 1 5 5 - = - 5 5 7 j G G 5 # ; , ; 7 j - # > > U 4 w.K , , s , , j U K s 3 s , > s ) :.U K ",
"& & & l z & & & & z & & l l l <.= 4 a a 5 - % # = 5 G j ( 3.J , ; ; - % 5 , % $ h h h > w.) K : , , U U :.U K U ' ) U U U :.+.U ",
"& & 1 n | & & & & z & o & 1 & l 4 4 a g 5 - % # 5 y 5 , 5 G G 5 ; ; @ @ 7 j - - : > , > w.7.) : $ - > G U s s U K ) 7.:.j s U >.",
"o o & l l & o & o 1 & & l 1 o 1 = - - 3 5 - = = J 5 - , 5 , 5 j 2 - = ; 3.( j U : > h = ) [ [ < % > s ) U , > s > 3 K s s s U 7.",
"& & & & & o & & o l 1 1 l 1 & 1 = - > 3 s j , ; j - - G ( 5 ; j # ; 5 %.3.7 - ( % > > % K > , > K U U 7.:.) U U U K , , U ' U s ",
"1 & & & & o & & o & 1 & & & & & = > 4 M s , 5 , - - , G J j 5 , # - ; %.%., % 7 > - > > ) > > < > > > s s > , , 0.:.U j U ) U j ",
"1 & 1 1 1 & & & & 1 l 1 o o 1 1 @ = 4 4 - % = - - , , ; 5 G j = J - $ , 3.j - 5 K > K K w.U U U ' U K U K < > , - < ' U , > ( p.",
"& 1 <.o 2 o 1 & 1 | & 1 z o @ 1 & % - s 7 $ O , B j , = $ = - , $ % % , $ > > ) ' U U U j ( ' < > < > % _ 5.5.5.5.a.5._ a.5.< < ",
"& o 1 o | 1 4 1 1 o 1 & 1 1 o 1 5 @ - < + % { ; _ p.s.J - 5 5 - - < , :., s > U 7.:.G > % > j : U 5.< : _ < : < 9._ : : O < [ 5.",
"| & 1 & r.1 1 & 1 & z 1 & 1 - 2 * = - - , U U , - p.h.J - , - @ - > > U K ) > > ) U , % $ > U > < 5.5.5.9._ < < _ : _ 5.< _ < O ",
"1 & 1 1 r.| <.n 1 1 & 1 o o l $ @ 1 - - B j , , , p.s.G - - 1 - > > > U s , , , U > , , > U ' U < < 5.p.9.< < 5.a.5.5.5.< _ [ : ",
"1 1 4 1 4 1 | 1 1 z 1 1 + o M & G $ - y $ % ( , j B j , - - - > U ' ' U , > U U 0.s s ' U 5 U U U < 5.5._ , _ 5.a.a.: : < < < 5.",
"1 l z & = * 1 3 <.1 b 1 - y 1 l 5 = 1 G - = ; - j < 5 5 ; % $ - M K ) > > > ) :.g.U s ' j , U _ , > 6.5.< < 9.a._ 5.< < 5._ : < ",
"* * 1 @ - 4 r.r.4 = 1 & - 2 o - $ G 5 5 %.7 $ % J %.>.%.j - - ; > > U - K > U s U j U U s U 6.< : : _ 5.< [ a.a.a.a.5.< [ 5.< < ",
"w.b & 1 * * - z 1 b @ 4 <.& $ @ j - j 5 = G %.$ - J %., % - - = :.:.0., :., U - , ( >.U , 3.' % : : 5.5.< _ 9._ 5.< _ 9.< 9.9.< ",
"A b * & 3 X.3 & 1 & - - 1 1 5 l $ # , 5 2 5 G , s 3 j 5 , - = 7 > - ' > ) ) K > > K U U U s - $ : < < < : < K < 5.5.5._ 5._ < < ",
"& - - - - 4 l 4 5 - - 1 1 1 l 5 5 > , > % - - $ $ $ 5 5 7 G , j U U , U > 7.> s 4 K U U U U U > , U 5.5.5.5.5.5.< a.9.: : _ a.5.",
"= & = & = - - - s 5 5 - - - 5 5 G > - - = 5 G - @ @ 3 s j s - , 7.U , U > 7.> K > > 3 3 , U U , U < 5.5.5.5.U < 5.[ 5.5.5.5._ _ ",
"4 & $ $ - > - @ 5 5 5 5 s , 5 5 , - , ; 2 G %.5 % & 5 s s j > < 0.> :.j 7.> > = > > > - > , s , 5.< < 5.< , : 5.k.5.< [ 5.< : < ",
"; - # = 5 U y 5 - > 5 G j 1 2 , , ; 5 , = 5 o.G 1 - l G j ( j p.3., :.s 7.> : % , s > > > U U U 7.U < 5.< < K 9.< 5.5.< < < < < ",
"= = = - - - 5 G - - 5 G s , ; 5 j j G , - 5 1.1.y - s 5 , U j i.( U 5 U - s % > > > > , s ) ' ) [ U [ a.5.5.5.a.: U a.a.5.5.< : ",
"= - - 5 - = = 1 - - 5 j 5 5 , 5 j < U j 5 ( >.1.G 2 G , 5 j , _ , U j U % K - > > > K s U ' ' U U < < 5.a.5.5.5.a.[ : U 5.5.5.5.",
"; = = 5 %.G 5 - > 5 5 j 5 - , j > - j ( ( o.G = l 5 J ( ( ( G p.> , p., < > > > > U U U $.:.U < 5.< < U 5.9.5.U O < 5.< , 5.5.< ",
"# ; # ; J 2 # ; @ ; # ; i.i.# ; ( G , , - ; s U o.j 5 j 5 2 = % = G %.J J %.J , ; # < J J J 5.a.< K 5.5.< 5.a.< 5.< < 5.5.a.5.5.",
"# - * ; ; * # % ; # * i.i.# # < G U 7 - - G %.%.5 - , j %.U j j ( , - 7 G j B { p.< : < 5.J 5.5.5.< 5.5.< 5.a.< a.5.< 5.< < 5.5.",
"# # ; ; # # % # # i.i.k.< 7 < i.j j j , s G %.J 5 , , y ( ( J J %.; % , j , , { J < < J J < J 5.p.< 5.5.5.5.5.5.a.< < < : : : 5.",
"; # ; ; # ; ; ; O ; i.i.# ; < ; G 7 5 7 s , , 5 o.G 5 5 G j j j - j j - , _ < ; ; ; J 5.< < < 5.a.5.5.5.5.5.5.5.< 5.5.5.5.5.5.a.",
"7 * ; , ; ; ; - ; # J l.J ; ; i., % % < j ; - < ( < , , , , j U - < s > ; < J , p.J ; : < < < J 5.5.< 5.5.< 5.5.< 5.5.5.5.5.5.5.",
"7 ; - ; ; - ; # J y J k.{ { y 5., % % B _ , < ( 7.( j , , , ; < 5 - - , < , < i.5.5.5.< < < { 5.5.5.5.< 5.5.< 5.5.5.< : < 5.5.< ",
"- - - , ; ; = ; # i.; < ; 7 : # % % - < < j 7 , 3._ j _ j , , , 3.7 , , ; ; < 5.; 5.p.i.< < 5.5.5.a.5.< 5.5.5.5.a.5.5.5.a.a.a.5.",
"@ - - - 7 ; - ( i.2 # J < ; O < , j < % - B , $ , , < G ( B < j p.p.] , < J < ; a.i.5.< < < < < 5.a.U : < 5.< 5.< < 5.5.a.a.5.5.",
"@ - j 7 5 3 > - # ; , , , < ; $ ; < { B < , , < % , ; , B ] < ; ( _ j j B { p.p.a.< : < a.5.5.5.5.5.< 5.< < < a.5.a.< < k.a.5.5.",
"@ $ = - - > - = ; % ; ; j j < - % , { i.] B , : , - < i.{ % : i.- < { p.p.i.< % < < 5.5.< < < a.5.a.5.5.5.5.5.a.5.a.a.5.5.5.a.a.",
", - = - 5 U 4 4 , ; # ; , , , - # , < i.i.< , ; % < < < < < < , < _ { ] { { < ; < < a.5.< < 5.a.< 5.5.< 5.< 5.a.a.5.a.a.< 5.a.a.",
"G 5 = & = 3 4 > B % $ - , , , < < < p.i.< < , , % _ _ < B i.i., ( i.p.< < < { { < 5.5.< 5.5.5.< 5.5.5.< 5.< 5.a.5.< < a.5.5.5.5.",
"s 5 - = $ - 4 a K = @ > j j U ( < < < J , ; ; < ; , p.p.i.< { a.: i.a.p.{ { { { : < 5.< < 5.5.< 5.5.5.< 5.< 5.a.< 5.< 5.a.5.< < ",
"5 M M > - 4 M ^ M > = > , j , , , , < < < < < < O , { { { p.i.< < i.j.i.J { J < : 5.5.5.< < 5.a.< 5.5.< 5.5.5.5.< a.5.< 5.5.< a.",
"= 4 > - > > > 4 4 4 > > > > > % ; , , , < < < { ; J < % < a.i.% p.p.i.< , i.i.< < < 5.< 5.5.5.5.< < < < 5.5.5.5.5.a.5.5.5.5.5.a.",
"4 4 W 4 4 4 K 4 - 4 s 5 , U U > < < , ; ; ; < { < { < i.i.< < < p.i.< < < a.p.< 5.< : < 5.5.< < < 5.< 5.5.a.5.5.a.< 5.5.< a.a.5."
};
