/* XPM */
static char *_4bd75750fe1400afbe0845fb74a23e6nVwKthXNMr3etD5Y[] = {
/* columns rows colors chars-per-pixel */
"64 64 201 2 ",
"   c #020303",
".  c #060808",
"X  c #0A0B0D",
"o  c #110F04",
"O  c #0E170A",
"+  c #12180C",
"@  c #0C0F13",
"#  c #0E1216",
"$  c #141619",
"%  c #201D14",
"&  c #192613",
"*  c #1B2F13",
"=  c #332E0E",
"-  c #2A3B13",
";  c #171C23",
":  c #1C222B",
">  c #35332E",
",  c #252D39",
"<  c #29313D",
"1  c #453C18",
"2  c #1C490E",
"3  c #1F4D12",
"4  c #214E13",
"5  c #294E1C",
"6  c #235216",
"7  c #295716",
"8  c #265816",
"9  c #2B5D17",
"0  c #265519",
"q  c #29551B",
"w  c #275A18",
"e  c #2B5C1C",
"r  c #315E1E",
"t  c #2D6117",
"y  c #2E611D",
"u  c #31641E",
"i  c #35691E",
"p  c #2E5D21",
"a  c #2E582B",
"s  c #325623",
"d  c #3A5626",
"f  c #335D24",
"g  c #325D2B",
"h  c #3A5D2A",
"j  c #355D32",
"k  c #385C36",
"l  c #3A5D3C",
"z  c #2F6220",
"x  c #326422",
"c  c #396426",
"v  c #366922",
"b  c #3A6D24",
"n  c #36632A",
"m  c #3A642B",
"M  c #3B6C2A",
"N  c #3D7126",
"B  c #3F7229",
"V  c #3B6632",
"C  c #3A6334",
"Z  c #3E643C",
"A  c #4F5F1E",
"S  c #615219",
"D  c #7B681E",
"F  c #475B26",
"G  c #485B32",
"H  c #575D3C",
"J  c #416729",
"K  c #416E2E",
"L  c #41742A",
"P  c #45792E",
"I  c #456537",
"U  c #546F3C",
"Y  c #487535",
"T  c #4A7635",
"R  c #69782B",
"E  c #2C3543",
"W  c #323C4B",
"Q  c #364B43",
"!  c #3C5C43",
"~  c #3E5C4A",
"^  c #364152",
"/  c #394455",
"(  c #3B4659",
")  c #3D495C",
"_  c #3E6142",
"`  c #3F4C61",
"'  c #4D4E4D",
"]  c #415D4E",
"[  c #425C53",
"{  c #47545B",
"}  c #455B5B",
"|  c #4B5B5F",
" . c #585753",
".. c #645F44",
"X. c #426544",
"o. c #4A6447",
"O. c #44644B",
"+. c #576346",
"@. c #5B7D47",
"#. c #496257",
"$. c #566559",
"%. c #69634A",
"&. c #6C714F",
"*. c #786556",
"=. c #414E62",
"-. c #445265",
";. c #495264",
":. c #465963",
">. c #495A65",
",. c #47556B",
"<. c #48566C",
"1. c #4A596B",
"2. c #53576D",
"3. c #5C586F",
"4. c #4F5B70",
"5. c #565B71",
"6. c #625B6D",
"7. c #705A66",
"8. c #635970",
"9. c #6B5A71",
"0. c #735C73",
"q. c #7B5D74",
"w. c #4C6162",
"e. c #5B6476",
"r. c #75706C",
"t. c #646B7B",
"y. c #867530",
"u. c #845E75",
"i. c #8B5F77",
"p. c #8A6465",
"a. c #946468",
"s. c #9B666C",
"d. c #8A6076",
"f. c #946179",
"g. c #9C627A",
"h. c #887C72",
"j. c #A86674",
"k. c #A4637B",
"l. c #AC657A",
"z. c #B4667E",
"x. c #B8667F",
"c. c #6F8021",
"v. c #5E834A",
"b. c #698957",
"n. c #799168",
"m. c #948026",
"M. c #A69731",
"N. c #B89E3F",
"B. c #BBA12F",
"V. c #ABA837",
"C. c #C9AF31",
"Z. c #DBBB38",
"A. c #E0BC37",
"S. c #DCC337",
"D. c #EDC83A",
"F. c #F2CD3E",
"G. c #F6D13E",
"H. c #FDD53E",
"J. c #948747",
"K. c #AA994B",
"L. c #859775",
"P. c #BCA56C",
"I. c #C4A84C",
"U. c #D7BC6A",
"Y. c #F3D146",
"T. c #E2C564",
"R. c #6E7381",
"E. c #737787",
"W. c #807D85",
"Q. c #B96780",
"!. c #8C8C8C",
"~. c #928F9A",
"^. c #9B9496",
"/. c #A69D94",
"(. c #A69A9E",
"). c #99A58A",
"_. c #9BA295",
"`. c #A9A990",
"'. c #9996A3",
"]. c #A49EA4",
"[. c #AA9FA2",
"{. c #ACA8A8",
"}. c #B7AAAA",
"|. c #B9B4AD",
" X c #ADA6B1",
".X c #B7ADB3",
"XX c #BCB3B3",
"oX c #CCB98E",
"OX c #C2B7B8",
"+X c #C4B6BA",
"@X c #C6BBBD",
"#X c #C9C0BE",
"$X c #C6BBC2",
"%X c #CDBEC2",
"&X c #CEC1C4",
"*X c #D1C3C6",
"=X c #DBCAC4",
"-X c #D4C5CA",
";X c #D7C8CC",
":X c #D9CACF",
">X c #DBCBD1",
/* pixels */
"e q 4 4 4 4 4 6 q 2 2 6 e q 6 4 3 q p 0 p p p 0 0 0 p 0 p z a 0 0 0 w 0 0 w V j ] Z k h f f p 6 q w q e z w w w y y y z z y y y ",
"q 4 4 4 3 4 4 4 q 4 4 4 q 6 q q q 6 w p p p p 0 6 0 p 0 0 p z p 0 3 0 0 z j ~ } >.>.| $.$.+.+.+.k g y w w z z z y z z z y z z t ",
"6 4 4 4 4 6 q q q 0 4 5 q q q q 6 6 0 p p p 6 0 6 0 0 6 3 0 0 n p 3 w p l ~ ,.1.6.u.g.j.g.a.r.%.I p e y z w w z z z z z x z z x ",
"q 0 q q 0 q q s q q q e m m f q a p p 0 0 z p 6 6 0 3 3 6 p 0 w w 3 z ! :.,.<.t.g.z.z.l.p.%.I r n e y v z w w z z z v M v u x v ",
"q q q q 0 6 6 q 0 q q x I O.O.[ [ [ ~ k a a p 0 w 0 0 6 0 a w w 0 e _ :.,.,.8.g.l.z.z.*.J x u e e z z z y y y w w x B z y i z y ",
"6 0 6 q q 4 6 6 4 q f H *.p.d.q.8.<.,.:.[ ~ a a a w w 0 0 0 z z p l } ` ` -.6.q.d.f.p.o.f e e x z e y y y w z z z v v i z x z u ",
"4 4 6 q q q 6 6 q G *.s.l.z.z.l.k.u.3.<.,.,.{ ~ j z 0 0 0 w n j l ) =.-.;.,.3.3.6.9.6.#.X.h z x v z z n v x x v v x z z v M v N ",
"q q q q q q 4 d ..s.z.x.Q.Q.x.x.Q.l.f.6.,.,.,.,.` _ a z n j ~ ` :.,.,.<.3.0.i.g.k.g.*.Z Z X.m e z x x z x M M x x x z w z B B b ",
"4 7 7 2 2 7 H p.z.x.x.x.x.x.x.x.Q.Q.Q.i.3.,.,.<.,.,.} ~ ~ ` ` ,.,.,.,.<.5.9.u.f.Q.k.%.r e n x x z v z z z v M v v z t w y v v b ",
"3 5 7 5 G p.j.x.x.x.x.x.x.Q.x.Q.Q.Q.Q.k.u.2.,.<.,.,.,.,.` ` ` ,.-.,.<.<.<.<.4.2.2.9. .a x y e e z z z z z z M v M z t t v b b v ",
"3 5 r ..s.z.x.x.x.x.x.x.x.x.Q.x.Q.g.i.Q.Q.8.,.<.,.,.` 4.<.` ,.,.<.,.<.,.,.,.,.,.,.,.>.[ Z g e x z z w w z z v v v v y t z b N v ",
"4 F p.j.x.x.x.x.x.x.x.x.Q.x.Q.x.Q.0.0.Q.Q.0.<.,.,.,.<.<.4.4.<.<.<.<.,.<.<.<.<.<.,.,.,.,.:.[ k p z w w z v z v v z v v y z v b b ",
"q ..s.l.l.x.x.x.x.Q.x.Q.Q.x.x.x.f.3.q.Q.Q.f.4.<.,.,.<.,.<.,.,.<.,.,.<.,.<.<.<.<.1.,.<.1.w.:.[ l z z w z v v M v t z b z z i i b ",
"q F G H p.s.z.x.x.x.Q.Q.x.x.Q.x.i.2.0.Q.Q.W.4.<.,.,.<.<.<.<.<.<.<.<.<.<.<.<.<.,.,.,.,.1.>.O.O.O.! z z v B v v z i i i z v i v i ",
"q p q 5 r H p.z.Q.x.z.Q.Q.Q.x.l.u.2.3.Q.Q.0.<.<.<.<.<.<.<.<.<.<.<.<.<.<.<.<.<.<.,.,.,.,.,.:.O.C j _ n z z v v t i z t i b z i t ",
"s r q 4 3 q G p.z.x.Q.z.Q.z.f.0.8.,.<.q.q.5.<.<.<.<.<.<.<.<.,.<.,.,.,.,.,.<.,.,.<.<.,.<.<.<.:.l z V M z z v v z i t i i i t t i ",
"e e 0 6 3 6 0 I s.x.x.x.x.g.3.1.<.<.<.<.<.<.,.<.<.<.<.<.<.,.<.,.,.,.<.<.<.<.<.<.<.<.<.<.,.,.,.{ C z z z v v z z z i z i z t z b ",
"q 0 6 6 3 p p h *.z.x.Q.z.d.0.0.9.2.<.,.<.<.<.,.<.<.<.<.<.<.,.<.<.<.<.,.,.,.,.<.,.,.<.<.,.,.,.<.~ n z v M v z z z t z z i z v b ",
"q w 0 6 6 0 q p +.j.x.x.z.k.l.z.g.3.<.,.<.<.,.<.<.<.<.<.,.,.<.,.,.` W E , E ( -.<.<.,.<.<.,.,.<.,._ z z i v z z t z z t t z v z ",
"q q p p p 0 0 0 J a.x.x.z.Q.Q.z.u.2.<.<.<.<.<.<.<.<.<.<.<.,.<.,.W E ; X . . $ E -.<.,.,.,.<.,.,.,.~ z z z i z z z v z t t v v z ",
"0 0 z p 0 6 0 0 d *.z.x.x.x.x.g.3.,.<.<.,.<.<.<.<.<.<.<.<.,.<.,.=.` W E ;     # W -.,.,.,.<.<.<.<.:._ z v M M v v v z z z v v v ",
"0 p a p 6 3 6 0 q +.j.x.x.x.z.q.<.,.<.<.<.,.<.<.<.<.<.<.<.,.<.,.<.<.,.=./ :     ; / ,.,.,.<.,.,.<.,.~ z v M M n v z i v v z v M ",
"z p z 0 0 3 0 0 6 I s.x.x.x.k.8.<.<.<.<.<.<.<.<.<.<.,.` <.<.,.<.<.<.,.,.,.W ;     E -.<.,.,.<.,.,.<.} V z M v M z z z z z z z M ",
"p 0 0 0 p p p 0 0 h *.l.Q.x.g.2.,.<.<.<.<.<.<.<.,.<.,.` R.` <.<.,.,.,.,.<.-.E X   $ ( ,.,.,.,.,.,.<.:._ M B B B v b v v z z v v ",
"z w 0 0 p p 0 0 w w _ p.z.z.i.2.,.,.,.,.<.<.<.<.<.<.<.<.<.<.<.<.<.,.<.,.,.<.` :   . E ;.;.<.<.<.,.,.` Q a n B B z z v z v z v z ",
"a 0 0 0 p w 6 6 a w q o.j.Q.u.;.,.,.,.,.<.<.<.<.<.<.<.<.<.<.<.<.<.<.,.<.,.<.,.W X   : =.<.,.,.<.,.1.,.< & p x z z i z z v v v v ",
"0 0 0 z z p 0 0 p p q s %.j.u.,.,.,.<.,.<.<.<.<.<.<.<.<.<.<.<.<.<.,.<.,.,.,.,.` ;   # W ,.,.,.<.,.<.,.W $ * z x b v v v M M v v ",
"6 0 w n a 0 0 0 6 p w 4 f %.7.1.,.<.,.<.<.<.<.<.<.<.<.<.<.<.<.<.<.<.,.<.,.,.` ' 1 o . , -.<.,.,.,.,.,.( ; & p v z b b b v z v M ",
"3 6 0 p p 0 3 3 3 p 0 6 p k w.1.,.,.,.,.<.<.<.<.<.<.<.<.<.<.<.<.<.,.<.,.,.,.`  .M.1   : ` <.,.,.,.,.<.) $ O z x z z z v z z v M ",
"0 6 0 0 0 3 6 6 3 p p w j ~ ` 1.<.,.<.<.<.<.<.<.<.,.<.<.<.<.<.<.,.,.<.,.,.,.-.y.A.y.o # ) <.,.,.,.<.-.^ @ * z x v v z z v v v v ",
"p 0 0 0 0 6 6 0 3 0 p a ~ ,.,.,.,.<.,.<.<.<.<.<.,.<.,.<.,.,.,.<.<.<.<.,.-.=.;.J.F.C.= . W <.<.,.,.1.` : . * z z v v v v v v z v ",
"0 0 p p w 0 0 0 0 p a ! ` 1.,.,.,.<.<.<.<.<.<.<.,.<.,.` ` ` ` ` ,.,.,.,.,.` ;.K.G.D.D O , ,.,.,.,.` E X O w z v z v v M z z v B ",
"0 p z 0 w 6 p w p g l :.<.<.<.,.<.<.<.<.<.<.<.,.<.<.<.=.` W W W ( ` ,.<.<.-.;.K.G.H.B.= ; =.<.<.=.E @ . - v b v N N i i b b i b ",
"0 6 0 0 p p p p p a ~ <.,.<.,.,.<.<.<.<.<.<.<.<.<.<.<.,.,.,.,.` ` W W =.=.,.2.K.Y.H.D.D + < =.;.E $ % = r i u i N v u 9 r r c c ",
"z 0 0 p n n p q p ! <.<.<.<.,.<.<.<.<.<.<.,.<.<.<.,.<.<.,.<.<.,.-.-.=.W ( W { J.F.H.G.B.= # < W > S m.R J i u i v u f h s d f 9 ",
"a 0 w p C x n z j ` :.} >.<.,.<.<.<.,.<.<.<.<.<.,.<.,.,.,.,.<.<.<.<.<.,.=.' ^ &.S.H.G.V.- + > ..N.Z.M.R L i u c m h m c u i i t ",
"p p p w z z z p _ #._ } <.,.,.,.,.,.,.<.,.<.<.<.<.<.<.<.,.<.<.<.<.,.<.,.<.,.=.*.K.A.D.c.& ' h.P.Y.C.A m M u f m K N u t i i i i ",
"w z z w 0 q p n _ Z _ } } :.<.<.<.<.<.,.<.,.<.<.<.<.<.<.<.,.<.,.,.,.<.,.<.,.e.^.oXI.M.A > d./.U.Y.V.+.@.v.I J L N N i i v i t i ",
"q p p 0 q z n M C p n j j l ! { ` 4.,.,.,.<.,.<.<.<.,.,.<.,.,.-.;.,.,.,.,.4.!.$X=XoXP.r.h.{.OXU.T.oX}.XX/.!.b.P L L v b N v v i ",
"n z w 0 w e p z p e 0 p n q 0 j ~ ` ,.<.,.,.<.,.,.<.,.,.<.,.,.R.E.t.e.t.t.~.$X:X>X:X*X+X+X%X+XJ.&.h.{.}..X*X).T N v N N v N B i ",
"n z q w p z p q q q w p p e e e g _ ~ <.<.<.,.<.<.,.,.<.<.,.5.~..X{.].]. X.X+X@X%X%X%X>X>X%Xq.: # $  .}.*X*X{.U v N b b b b b u ",
"e q w w e z z p p e e e e z p p z z C ~ <.<.<.,.,.<.,.<.,.` =.E.[.[.[.[.[.(./.(.(.[..X%X>X%X!.> . X  .@X-X}.!.I f J m r r b N N ",
"8 0 0 8 e e e e x e e e p y e x z y e g ~ ,.,.<.<.<.<.` W W <.~.$X%X*X*X*X%X+X$X$X+X+X;X>X>X%X(.' ' [.;X-XXXL.K c c c m h c c i ",
"e w 8 8 e e e 8 u p x x x e x x z z e z C } <.,.<.<.` W ` ` 5. X>X>X>X>X>X>X-X*X:X>X>X>X>X>X>X:XOXOX;X>X>X#Xn.B P v x b x s r d ",
"e w 8 8 e z z y e y u x x e x e z z z e p ! :.,.<.,.` ` ,.,.4.'.:X>X>X:X>X>X-X%X%X>X>X>X>X>X>X>X;X:X>X>X-X).T B i N B i v i u f ",
"q 8 w e e t p x e e e x x x e x x x x z e n #.,.,.,.,.,.,.,.4.~.;X>X>X:X>X:X>X-X%X;X>X>X:X:X=X%X%X-X=X-X`.v.B P i i N L B v i u ",
"9 w e y y q e e e e e x x e u x x u v v z M _ 1.,.<.<.<.<.,.<.~.-X>X>X>X>X>X>X:X%X%X%X%X%X%X%X%X*X@XOXL.v.B N B B i i v N N v b ",
"e q q y x x y e e e x x y f e x u e x n z x C } <.,.,.,.,.,.,.E.$X>X>X>X>X>X>X>X>X>X;X%X-X;X:X>X>X#XL.T N B N i u i i u i N N i ",
"w 9 q r u r 7 7 7 r 9 r c u 9 u x v x e f n C #.<.,.,.,.<.<.-.R..X>X>X:X>X>X>X>X>X>X>X;X;X=X*X&X#X).U N i N c.i i i i b N N N N ",
"7 9 7 e r 7 7 e 7 7 r J J u 9 u n x c l ] } #.| -.,.,.,.<.,.-.<.'.;X>X>X>X>X>X>X>X>X>X>X:X#X{.L.b.T N N i N i i P N i i i i i N ",
"7 7 r r r q 7 9 9 r K T i u u J x n _ :.1.,.1.-.-.` -.,.<.,.-.-.E.$X>X>X>X>X>X>X>X:X>X>X:X#Xn.T N b b b N N N N N i i i i t i N ",
"r 7 e r 7 e r 7 7 r K K r r c u x C } ,.,.,.,.,.,.-.` ,.<.,.,.-.4.'.-X>X>X>X:X>X>X>X>X>X-X`.U b L N b N N N N N N i N N N i b N ",
"r 7 r r r e r e r e c Y c 9 u J x ~ ,.,.<.<.<.<.<.,.-.-.,.,.<.,.` R. X;X>X>X>X>X>X>X>X*X`.@.b b N N b i N b i N i N i i N N N N ",
"r r e r r r e 9 u x c K J i u i n } ,.,.<.<.,.,.,.,.-.` ,.,.,.,.<.1.n.|.-X:X>X:X-X*XOX).@.i b b N N i i N i i N N N i i i N N i ",
"e e 9 e e e q e r x u u u u r r C -.,.,.<.<.,.,.<.,.,.-.,.,.,.,.<.:.} R.'. X.X{._.L.b.v.i i i J N L b i b N i N N N N N N P N N ",
"6 w e e r r y u x u r x u 9 7 r _ <.,.<.<.,.,.<.,.,.,.` ,.,.,.,.<.,.:.,.4.4.R.e.$.B i t i i i i b L b i i N N i N N N N P P L N ",
"6 q y y z e e t e r u u u u e e ! <.,.<.<.<.<.,.,.,.,.` ,.<.<.,.<.,.<.,.,.,.,.,.#.n u v N N b L N N N i i i i N N N N N L L N L ",
"8 8 e e e z y 0 e e e u u x u e l } <.<.,.<.,.,.,.,.,.,.,.,.<.,.<.<.<.<.<.<.,.,.w.V N N b v i L N N N i N N N L L N L N N N P P ",
"t e e 8 z x z y r e 9 e u u u y y C #.w.:.,.,.,.,.<.,.,.,.,.<.,.<.,.<.,.,.<.,.,.w.Z B N v i N L N N N i N i N P L N N L i N P P ",
"x y w 6 w p y z u q 8 e u u u u z v M _ #.:.,.,.,.,.,.,.,.,.,.<.<.,.<.<.<.,.,.,.` Z N b v v N b i N N i N i N P N N N N N N L i ",
"z z e w 0 t z x z w 8 w u x x v i i i v n _ ~ :.,.,.,.,.,.,.,.,.,.<.,.,.<.<.<.,.` Z N i i i N N N N N i i i N N N N i N N N i i ",
"z z z y w y z x x y w y u x u u u u u u z v V _ ~ w.,.<.,.,.,.,.,.,.,.,.,.,.,.<.w.Z N b i i N N i N i i N N N N i N N i N N i L ",
"e y y e y y z z y z y y y u y 9 u u u u x x v z z Z _ ~ w.w.1.w.1.,.1.:.,.1.1.,.~ M N i N i N N i i i i N N N N N N N N N N N P ",
"y z z z z z z y t y x y y x u e y i t u t u v v v M M B T _ _ ~ #.w.w.} w.w.w.w.@.i t i i N N i i i i i N L N N N N N N i N P N "
};
